<svg id="Layer_1" data-name="Layer 1" xmlns="http://www.w3.org/2000/svg" viewBox="0 0 695.23 237.17"><defs><style>.cls-1{fill:#fff;}</style></defs><path class="cls-1" d="M28,100.85a16.76,16.76,0,0,1,4.9-1.2,12.91,12.91,0,0,0,6.1-1.9c1-2.1,1.5-7.3,1.5-15.7v-8.9l.1-5.3-.1-3.9.1-7.2-.2-18.2c0-2.1-.3-3.4-.9-4-.9-.9-3.2-1.8-7-2.6a8,8,0,0,1-2.9-.9,2.17,2.17,0,0,1-.6-1.6,10.53,10.53,0,0,1,1.8-.3h4.1l2.1-.1a27.1,27.1,0,0,1,4.7.4q5.25.3,10.8.3c1.1,0,2.6-.1,4.6-.2,5.3-.3,9-.4,11.3-.4a61.27,61.27,0,0,1,13.1,1.3,48.44,48.44,0,0,1,12.7,5,31.69,31.69,0,0,1,8.3,7.3,37.48,37.48,0,0,1,6.5,10.8,38.45,38.45,0,0,1-.2,26.2A34.33,34.33,0,0,1,102,91a32.7,32.7,0,0,1-8.8,7.1c-3,1.6-7.5,3-13.6,4.1a96.33,96.33,0,0,1-13.6.7,100.8,100.8,0,0,1-10.5-.4c-1.1-.1-2.2-.2-3.4-.2a1.27,1.27,0,0,0-.6.1l-23.3.4-.1-.4a1.27,1.27,0,0,1-.1-.6Zm29.1,12.4a22.71,22.71,0,0,0,8.8,1.8,31.8,31.8,0,0,0,21.1-8.3,35.29,35.29,0,0,0,7-8.9,49.37,49.37,0,0,0,3.9-8.9,57.11,57.11,0,0,0,1.6-15.1,56,56,0,0,0-3.1-18.1,34.3,34.3,0,0,0-7.6-12.2,32,32,0,0,0-12.9-8.5,46.9,46.9,0,0,0-16.1-2.7c-4,0-6.9.5-8.8,1.6a8.65,8.65,0,0,0-.7,1,18,18,0,0,0-.3,3.1,16.23,16.23,0,0,0,.1,2.1c.1,5.3.2,9.5.2,12.7l-.1,15.5c0,22.8.4,35.5,1.1,38.1S53.93,111.25,57.13,113.25Z"/><path class="cls-1" d="M124.93,98.05a2.31,2.31,0,0,1,.7-.5,11.13,11.13,0,0,1,2.5-.3c2.8-.2,4.5-.4,5.2-.8a4.27,4.27,0,0,0,.6-2.4v-14l-.1-5.2V64l-.2-12.4c0-2.9-.2-4.6-.6-5s-2.1-.9-4.6-1a12.31,12.31,0,0,1-2.9-.3.94.94,0,0,1-.6-.8,3.09,3.09,0,0,1,.2-.8,2.54,2.54,0,0,1,.7-.2h1.5a45.78,45.78,0,0,0,5.3.3l3.2-.1,7.6.2c3.8,0,6.8,0,8.9-.1s3.6-.1,4.3-.1,2.3.1,4.9.2h6.1l.7.1,3.6-.1.4.2c.1.2.2.5.3.7,0,.4-.1,1-.2,1.9s-.2,1.4-.2,1.6c0,3,.1,5.5.3,7.6a.27.27,0,0,1-.3.3,2,2,0,0,1-.8-.1c-.3-.5-.7-1.5-1.3-2.9a26.7,26.7,0,0,0-2.4-4.8,7.82,7.82,0,0,0-1.7-2.2,6.51,6.51,0,0,0-2.5-.3c-.3,0-1.6,0-3.9-.1h-1.9l-12.3.3h-1.1c-1.6,0-2.5.2-2.9.6-.5.7-.7,2.7-.7,6.1,0,.3.1,3.8.2,10.4v6a3.4,3.4,0,0,0,1,.1h2.9c1.5.1,2.5.1,3,.1h.9c3.1-.1,7.1-.2,12-.2a6.56,6.56,0,0,0,2.7-.9,9.27,9.27,0,0,0,1-4.1c.2-2.2.7-3.4,1.4-3.7a3,3,0,0,1,1,.2,1.27,1.27,0,0,1,.1.6,4.59,4.59,0,0,1-.1,1c-.1,1.1-.2,4.4-.2,10,0,1.5.1,3.2.2,5a27.16,27.16,0,0,1,.2,3,3.75,3.75,0,0,1-.1,1,1.42,1.42,0,0,1-.6.2H166a13.68,13.68,0,0,1-1.3-3.8c-.8-2.9-1.5-4.7-2.4-5.5a5.79,5.79,0,0,0-4-1.1c-.4,0-1.1,0-2.2.1s-2.7.1-4.8.1h-2.8a64.49,64.49,0,0,0-7.9.3v19.3c0,2.9.2,4.7.6,5.1a4.18,4.18,0,0,0,3.2,1H147c.2,0,1.1,0,2.7.1s3.5.1,5.8.1c5.6,0,9.3-.2,11.1-.7a10.3,10.3,0,0,0,4.6-2.5c1.2-1.2,2.7-3.8,4.5-7.9.5-1.2,1.1-1.8,1.6-1.8a1.9,1.9,0,0,1,.9.3,53,53,0,0,0-1.4,5.6,62,62,0,0,0-.6,6.2,3.79,3.79,0,0,1-.7,2.4h-1l-12.2.1h-5.5l-13,.2h-7.2c-5.2.2-9,.3-11.5.3a2,2,0,0,1-.9-.2c-.2-.1-.2-.4-.2-.6Z"/><path class="cls-1" d="M199.13,99a3.19,3.19,0,0,1,.3-1.4,41.56,41.56,0,0,1,6.6-1.5,3.42,3.42,0,0,0,2.7-1.1c.3-.4.5-2.1.5-5l.3-13.7V51.65c0-7.3,0-11.8-.1-13.6a6.36,6.36,0,0,0-.3-1.5,8.7,8.7,0,0,0-1.9-.8c-.5-.1-2.8-.6-6.8-1.5v-1.6c.5,0,1.4,0,2.7.1l6.6.3,3.8.1,1.1-.1a9.29,9.29,0,0,1,1.3.1,15.78,15.78,0,0,0,2.9-.1l3.5-.3a48.77,48.77,0,0,1,4.9.2,7.47,7.47,0,0,1-.3,2,35.78,35.78,0,0,1-4.5.3c-2.7.1-4.2.3-4.6.6-.7.4-1,1.8-1,4.1,0,.6,0,1.7-.1,3.4v16l.1,17.2-.1,14.6v3.2c0,1,.1,1.7.4,1.9.7,0,2.8.1,6.4.1h2.9l7.5-.3a11.86,11.86,0,0,0,4.2-.7,24.29,24.29,0,0,0,4.2-3.5,16.15,16.15,0,0,0,2.8-3.8,8.76,8.76,0,0,1,.7-1.2,34.77,34.77,0,0,0,2.2-5.4h1.4c-.2,1.2-.4,2.4-.6,3.5-.8,4.9-1.4,8.9-1.7,12.2-.1.7-.1,1.3-.2,1.9l-16.2-.6c-13.9,0-22.2.2-24.8.5a21.75,21.75,0,0,1-2.6.1h-4.2Z"/><path class="cls-1" d="M269.33,98.05a2.31,2.31,0,0,1,.7-.5,11.13,11.13,0,0,1,2.5-.3c2.8-.2,4.5-.4,5.2-.8a4.27,4.27,0,0,0,.6-2.4v-14l-.1-5.2V64l-.2-12.4c0-2.9-.2-4.6-.6-5s-2.1-.9-4.6-1a12.31,12.31,0,0,1-2.9-.3.94.94,0,0,1-.6-.8,3.09,3.09,0,0,1,.2-.8,2.54,2.54,0,0,1,.7-.2h1.5a45.78,45.78,0,0,0,5.3.3l3.2-.1,7.6.2c3.8,0,6.8,0,8.9-.1s3.6-.1,4.3-.1,2.3.1,4.9.2H312l.7.1,3.6-.1.4.2c.1.2.2.5.3.7,0,.4-.1,1-.2,1.9s-.2,1.4-.2,1.6c0,3,.1,5.5.3,7.6a.27.27,0,0,1-.3.3,2,2,0,0,1-.8-.1c-.3-.5-.7-1.5-1.3-2.9a26.7,26.7,0,0,0-2.4-4.8,7.82,7.82,0,0,0-1.7-2.2,6.51,6.51,0,0,0-2.5-.3c-.3,0-1.6,0-3.9-.1h-1.9l-12.3.3h-1.1c-1.6,0-2.5.2-2.9.6-.5.7-.7,2.7-.7,6.1,0,.3.1,3.8.2,10.4v6a3.4,3.4,0,0,0,1,.1h2.9c1.5.1,2.5.1,3,.1h.9c3.1-.1,7.1-.2,12-.2a6.56,6.56,0,0,0,2.7-.9,9.27,9.27,0,0,0,1-4.1c.2-2.2.7-3.4,1.4-3.7a3,3,0,0,1,1,.2,1.27,1.27,0,0,1,.1.6,4.59,4.59,0,0,1-.1,1c-.1,1.1-.2,4.4-.2,10,0,1.5.1,3.2.2,5a27.16,27.16,0,0,1,.2,3,3.75,3.75,0,0,1-.1,1,1.42,1.42,0,0,1-.6.2h-.3a13.68,13.68,0,0,1-1.3-3.8c-.8-2.9-1.5-4.7-2.4-5.5a5.79,5.79,0,0,0-4-1.1c-.4,0-1.1,0-2.2.1s-2.7.1-4.8.1h-2.8a64.49,64.49,0,0,0-7.9.3v19.3c0,2.9.2,4.7.6,5.1a4.18,4.18,0,0,0,3.2,1h2.6c.2,0,1.1,0,2.7.1s3.5.1,5.8.1c5.6,0,9.3-.2,11.1-.7a10.3,10.3,0,0,0,4.6-2.5c1.2-1.2,2.7-3.8,4.5-7.9.5-1.2,1.1-1.8,1.6-1.8a1.9,1.9,0,0,1,.9.3,53,53,0,0,0-1.4,5.6,62,62,0,0,0-.6,6.2,3.79,3.79,0,0,1-.7,2.4h-1l-12.2.1h-5.5l-13,.2H281c-5.2.2-9,.3-11.5.3a2,2,0,0,1-.9-.2c-.2-.1-.2-.4-.2-.6Z"/><path class="cls-1" d="M344.23,45.75v-2.1c4.5,0,7.7-.1,9.8-.3a13.05,13.05,0,0,1,1.7-.1h1.2a28.31,28.31,0,0,1,3.4,3.5c.2.3.5.5.8.9l9.1,10.1,1.3,1.6a73.65,73.65,0,0,0,5,5.5c1.5,1.5,4.5,4.7,8.9,9.6L395.73,86q1.5,1.65,3.9,4.2v-.7c-.2-4-.3-6.1-.3-6.4l.2-2.6-.1-4.1v-1.9c0-1.2-.1-4.8-.3-11,0-.8-.1-2.4-.3-4.7s-.3-4.4-.3-6.1c0-3.2-.2-5-.6-5.5s-1.5-.8-3.7-1.2a15.17,15.17,0,0,1-2.4-.3,16.3,16.3,0,0,1-2.3-.2,1.54,1.54,0,0,1-.7-.7,5,5,0,0,1,.4-1.3,9.08,9.08,0,0,1,2.3-.3,18.86,18.86,0,0,1,3,.3,20,20,0,0,0,3.2.3c1.3,0,3.4-.1,6.2-.3,1.6-.1,2.7-.2,3.3-.2h.7l-.1,1.3a7.81,7.81,0,0,1-1.9.4,8.52,8.52,0,0,0-2.3.4,6,6,0,0,0-1.9.8,3.37,3.37,0,0,0-1,2.3l.5,13.7.3,6.3v1.8l.3,8.7c.2,5.9.3,11.1.3,15.5,0,1-.1,3-.2,6.2l-2,.2c-1-1.2-4.5-4.8-10.4-10.9-1.4-1.4-2.3-2.4-2.8-3l-3.7-4.3c-1.4-1.6-2.4-2.6-2.8-3l-1-1c-3.1-3.6-7.2-8.1-12.3-13.4-1.4-1.4-3.3-3.7-6-6.8-1.6-1.9-2.7-3.1-3.1-3.5a17.54,17.54,0,0,0-1.8-1.5l-.1,1.5c0,5.6.1,13.4.4,23.3l.3,14.3c0,1.2.1,2.4.2,3.5l1.5.3a75.37,75.37,0,0,1,8.1,1.2c.2.2.4.3.5.4v1.6a6.53,6.53,0,0,1-1.1.2,5.74,5.74,0,0,1-1.2-.1c-2.9-.2-6.3-.3-10.4-.3-2.9,0-5.4.1-7.6.2H346a4.91,4.91,0,0,1-1.1-.1v-1.3l1.1-.5,2-.3a18.58,18.58,0,0,0,4-.9,3,3,0,0,0,1.3-.9,61.45,61.45,0,0,0,.5-8.7c0-1.8,0-5.1-.1-9.8v-5.9l-.1-12.3c-.1-5.5-.2-8.7-.6-9.7a2.87,2.87,0,0,0-1.1-1.4,8.77,8.77,0,0,0-4.3-1.5A21.07,21.07,0,0,1,344.23,45.75Z"/><path class="cls-1" d="M430.23,97.85a10.59,10.59,0,0,1,3.7-.9,8.91,8.91,0,0,0,4.6-1.5c.8-1.6,1.2-5.6,1.2-12.1v-6.8l.1-4.1-.1-3,.1-5.6-.1-14.1c0-1.6-.2-2.6-.7-3.1-.7-.7-2.4-1.4-5.3-2a9.21,9.21,0,0,1-2.2-.7c-.3-.2-.4-.6-.5-1.2.7-.1,1.1-.2,1.4-.2h4.7a21.59,21.59,0,0,1,3.5.3c2.7.2,5.4.3,8.2.3.8,0,2,0,3.5-.1,4-.2,6.8-.3,8.6-.3a44.91,44.91,0,0,1,9.9,1,34.65,34.65,0,0,1,9.6,3.9,28.17,28.17,0,0,1,6.3,5.6,28.46,28.46,0,0,1,4.9,8.4,29.47,29.47,0,0,1,1.7,10.2,28.93,28.93,0,0,1-1.8,10A26.95,26.95,0,0,1,479.73,96a39.35,39.35,0,0,1-10.3,3.2,74.91,74.91,0,0,1-10.3.5c-3.3,0-5.9-.1-8-.3a21.12,21.12,0,0,0-2.6-.2H448l-17.7.3-.1-.3a.75.75,0,0,1-.1-.5Zm22-1.7a19.22,19.22,0,0,0,6.7,1.1,28.15,28.15,0,0,0,8.6-1.4,22.74,22.74,0,0,0,7.4-3.9,25.44,25.44,0,0,0,5.3-5.6,23.15,23.15,0,0,0,2.9-5.6,31.66,31.66,0,0,0,1.2-9.6,29.18,29.18,0,0,0-2.4-11.4,20.35,20.35,0,0,0-5.8-7.7,26,26,0,0,0-9.8-5.4,43.33,43.33,0,0,0-12.2-1.7,16.53,16.53,0,0,0-6.7,1c-.2.2-.3.4-.5.6a7.47,7.47,0,0,0-.3,2v1.3c.1,3.3.1,6,.1,8.1v9.8c0,14.4.3,22.5.8,24.1C448.23,93.55,449.73,95,452.23,96.15Z"/><path class="cls-1" d="M540.53,43.15a8.92,8.92,0,0,1,.2,1.1,2.81,2.81,0,0,1-.1.8,8.21,8.21,0,0,1-1.8.3,4.59,4.59,0,0,1-1-.1c-.5,0-.9-.1-1.1-.1a6.06,6.06,0,0,0-3.2.8,2.21,2.21,0,0,0-1,1.3l-.4,4.9.1,21.4c0,7.9.3,12.7.8,14.7a10.14,10.14,0,0,0,2.5,4.7,13.53,13.53,0,0,0,5.2,3.1,20.76,20.76,0,0,0,6.8,1.2c4.9,0,8.7-.7,11.3-2.1a12.29,12.29,0,0,0,5.6-5.9c1.1-2.5,1.7-6.3,1.7-11.4,0-.1,0-1.3-.1-3.5v-1.3c0-.5,0-1.4.1-2.7s.1-2.1.1-2.4l-.6-12.4c-.2-4.2-.4-6.7-.7-7.4a3.72,3.72,0,0,0-1.2-1.7c-1.1-.8-3.3-1.5-6.4-2.2-.1-.4-.2-.8-.3-1.3,1.1-.1,2.2-.2,3.3-.2s2.4,0,3.6.1c1.9.1,2.9.2,3.1.2l6.8-.2h1.3v1.6c-3.5.5-5.7,1-6.4,1.6s-1,1.8-1,3.4c0,.9.1,2.8.2,5.8l.3,9v3.6l.1,4.5a93.62,93.62,0,0,1-.5,11.6,23,23,0,0,1-2,6.8,14.38,14.38,0,0,1-3.7,4.5,20.75,20.75,0,0,1-6.5,3.3,25.25,25.25,0,0,1-8,1.3,31.24,31.24,0,0,1-8.9-.9,22.41,22.41,0,0,1-7.9-3.9,13.92,13.92,0,0,1-4.1-4.9c-1-2.1-1.5-5.3-1.5-9.4v-3l-.1-12.1.1-9.8v-6.6a6.11,6.11,0,0,0-.7-3.5,1.51,1.51,0,0,0-1.4-.7h-2.6q-2.85,0-3.6-.6a2,2,0,0,1-.1-.7.6.6,0,0,1,.3-.6,2.13,2.13,0,0,1,1.2-.3h10.8Z"/><path class="cls-1" d="M596.33,97.65a12.24,12.24,0,0,1,4.8-1.3c1.8-.1,2.9-.2,3.2-.5a2.65,2.65,0,0,0,.5-.6c.4-1.1.7-3.9,1-8.7.3-6.1.7-14.3,1.3-24.5.5-7.8.7-12.7.7-14.6v-1.1c-2.1-.4-5.4-.9-9.9-1.4a1.85,1.85,0,0,1-.4-1,2.71,2.71,0,0,1,.3-.8,3.63,3.63,0,0,1,1.1-.3c.2,0,.7.1,1.5.2a44,44,0,0,0,5.8.3c.8,0,2.2-.1,4.1-.2,1.4-.1,2.2-.1,2.3-.1a5,5,0,0,1,1.6.3c.3.3.5.6.7.8l1.8,4.1L629,75.35l5.1,11.4a184.21,184.21,0,0,0,9.3-21.2,5,5,0,0,1,.5-1.3,7.74,7.74,0,0,0,.7-1.6c.2-.6,1.2-2.9,2.8-6.9.7-1.6,1.2-3,1.6-4.2,1.6-4.6,2.6-7.3,2.9-7.9a3.93,3.93,0,0,1,1.4-.3,12.13,12.13,0,0,1,1.8.1c1.6.1,4.3.1,7.9.1,2.3,0,4.1,0,5.6-.1a2,2,0,0,1,.1.7,2.49,2.49,0,0,1-.1.8,6.71,6.71,0,0,1-3.3.8,17.5,17.5,0,0,0-4.9.6,2.35,2.35,0,0,0-1.3,1,14.29,14.29,0,0,0-.5,4v4.1c0,4.3.1,11.6.3,21.8v14a13,13,0,0,0,.3,3.8,2.92,2.92,0,0,0,1.7,1.1,49.79,49.79,0,0,0,7.6,1.6.6.6,0,0,1,.3.6v.9h-2c-1.7,0-3.6-.1-5.6-.2s-3.1-.2-3.2-.2c-5.9,0-9.9.1-11.8.2-1.2.1-1.9.1-2.3.1a2.54,2.54,0,0,1-.7-.2v-.6a2.2,2.2,0,0,1,.1-.8,12.7,12.7,0,0,1,3.9-.8,14.29,14.29,0,0,0,4-1.6,32.26,32.26,0,0,0,.4-6.7l-.1-8.8c0-1,.1-2.7.2-5.3s.2-6.8.2-12.7c0-4.6-.1-8.2-.3-10.6-.5,1-1.5,3.2-2.9,6.6l-.6,1.6-.1.3-6.4,15.1-2.3,5.8-3,7.1c-1.3,3.3-2.4,6.1-3.3,8.7a23.55,23.55,0,0,1-1,2.7h-1c-3.3-9.5-7.2-19.3-11.7-29.3s-7.7-16.6-9.5-19.8c-.2,1.2-.5,4.8-.8,10.8q-.6,11-.6,24a79.92,79.92,0,0,0,.6,9.2,2.7,2.7,0,0,0,1.3,2.2c.7.5,2.6.7,5.6.8a16.86,16.86,0,0,1,3.3.3,2.65,2.65,0,0,1,.3,1c0,.1-.1.4-.2.8l-13.4-.5c-1,0-2.5.1-4.6.2-1.2.1-2.8.1-5,.2Z"/><path class="cls-1" d="M76.93,142.05l.4-.8c2.8,0,5.6,0,8.4.1h3.4c2.2-.1,6.3-.1,12.1-.1h3.4c1.1,0,2.2,0,3.2.1a1,1,0,0,1,.5.4l-.1.8c-.2.3-.7.5-1.5.5h-.4c-1,0-2.5,0-4.7.2s-3.6.5-4.3,1a1.75,1.75,0,0,0-.7,1.4,15.42,15.42,0,0,0,1.7,5.5l7.8,16.7,2.7,5.5q4,8.85,7.8,18a15.86,15.86,0,0,0,.8,1.8l3.4-7.8c1.8-3.9,3.6-8.1,5.4-12.5l3.6-8.9a14.53,14.53,0,0,0,.6-1.9c3.3-8.4,5-13.6,5-15.9a1.75,1.75,0,0,0-.7-1.4,5.07,5.07,0,0,0-2.2-1.2c-.4-.1-1.8-.3-4-.6l-3.8-.4a1.46,1.46,0,0,1-.5-.8l.2-.4,16.7-.1h5.5a15.66,15.66,0,0,1,3.8.3l.1.4a2.24,2.24,0,0,1-.3,1,10.61,10.61,0,0,1-2.3.5,17.37,17.37,0,0,0-5.4,1.1,7.17,7.17,0,0,0-2.2,2.7l-13.5,30.8c-4.2,9.2-7.2,16.4-9,21.5l-1.5,4.1a1.86,1.86,0,0,1-1.1.4,6.15,6.15,0,0,1-1.3-.1c-4.1-9.7-7.4-17.2-10-22.5l-15.8-32.8a10.73,10.73,0,0,0-2.6-3.5c-.6-.4-2.6-1-6-1.7a16.28,16.28,0,0,1-2-.5A3.47,3.47,0,0,1,76.93,142.05Z"/><path class="cls-1" d="M167.23,201.75c.3-.2.5-.4.7-.4a19.47,19.47,0,0,1,2.2-.3,17.15,17.15,0,0,0,4.6-.7,3.43,3.43,0,0,0,.5-2.2v-12.5l-.1-4.6v-9.6l-.2-11c0-2.6-.2-4.1-.5-4.4-.5-.5-1.8-.8-4.1-.8a19.66,19.66,0,0,1-2.6-.2c-.3-.2-.5-.4-.5-.7a2.54,2.54,0,0,1,.2-.7,1.42,1.42,0,0,1,.6-.2h1.3a36.18,36.18,0,0,0,4.7.2l2.8-.1,6.8.2c3.4,0,6,0,7.9-.1s3.2-.1,3.8-.1,2,.1,4.4.2h5.5l.7.1,3.2-.1.4.2a4.88,4.88,0,0,1,.3.7c0,.4-.1.9-.2,1.7s-.2,1.2-.2,1.4a65.24,65.24,0,0,0,.3,6.8c0,.2-.1.3-.2.3a2.2,2.2,0,0,1-.8-.1,11.63,11.63,0,0,1-1.1-2.6c-.5-1.2-1.2-2.6-2.1-4.3A4.64,4.64,0,0,0,204,156a5.39,5.39,0,0,0-2.2-.3c-.2,0-1.4,0-3.5-.1h-1.7l-10.9.2h-1c-1.4,0-2.3.2-2.5.5-.4.6-.7,2.4-.7,5.4,0,.3.1,3.4.2,9.2v5.3a2.77,2.77,0,0,0,.9.1h2.6c1.3.1,2.2.1,2.7.1h.8c2.8-.1,6.3-.2,10.7-.2a4.48,4.48,0,0,0,2.4-.8,8.11,8.11,0,0,0,.9-3.6c.2-1.9.6-3,1.3-3.3a2.92,2.92,0,0,1,.9.2,1.27,1.27,0,0,1,.1.6,3.44,3.44,0,0,1-.1.9c-.1.9-.2,3.9-.2,8.9,0,1.3.1,2.8.2,4.5s.2,2.5.2,2.6a3.44,3.44,0,0,1-.1.9,1.69,1.69,0,0,1-.5.2h-.3A14.7,14.7,0,0,1,203,184c-.7-2.6-1.4-4.2-2.1-4.9s-1.9-1-3.6-1a18.15,18.15,0,0,0-2,.1c-.9,0-2.4.1-4.2.1h-2.5c-3.6,0-5.9.1-7,.2v17.2c0,2.6.2,4.1.5,4.5.4.6,1.4.8,2.8.8h2.3c.2,0,1,0,2.4.1s3.1.1,5.2.1a52.26,52.26,0,0,0,9.9-.6,8,8,0,0,0,4-2.3c1.1-1.1,2.4-3.4,4-7,.5-1.1,1-1.6,1.5-1.6a1.6,1.6,0,0,1,.8.3c-.7,2.5-1.2,4.2-1.3,5a48.86,48.86,0,0,0-.5,5.5,3.7,3.7,0,0,1-.6,2.1h-.8l-10.8.1h-4.8l-11.5.2h-6.4q-6.9.3-10.2.3a1.55,1.55,0,0,1-.8-.2.85.85,0,0,1-.2-.6Z"/><path class="cls-1" d="M233.63,155.45v-1.8q6,0,8.7-.3a9.89,9.89,0,0,1,1.5-.1h1a17.67,17.67,0,0,1,3,3.1c.2.2.4.5.7.8l8.1,8.9,1.2,1.4a56.87,56.87,0,0,0,4.5,4.9c1.3,1.4,4,4.2,7.8,8.5l9.2,10.2c.9,1,2,2.2,3.5,3.7v-.6c-.2-3.6-.2-5.4-.2-5.6l.2-2.3-.1-3.6v-1.6c0-1-.1-4.3-.3-9.7q0-1-.3-4.2t-.3-5.4c0-2.8-.2-4.5-.5-4.9s-1.3-.7-3.3-1c-.5,0-1.2-.1-2.1-.2a11.69,11.69,0,0,1-2-.2,1.44,1.44,0,0,1-.6-.7l.3-1.2a7.47,7.47,0,0,1,2-.3,15.73,15.73,0,0,1,2.7.3,15.87,15.87,0,0,0,2.9.3c1.2,0,3-.1,5.5-.2,1.4-.1,2.4-.2,2.9-.2h.7l-.1,1.2a4,4,0,0,1-1.7.3,6.45,6.45,0,0,0-2,.3c-.9.3-1.5.5-1.6.7a3,3,0,0,0-.9,2l.4,12.1.3,5.6v1.6l.2,7.7c.2,5.3.2,9.9.2,13.7,0,.8-.1,2.7-.2,5.5l-1.8.2c-.9-1-4-4.2-9.3-9.7-1.2-1.3-2.1-2.1-2.5-2.6l-3.3-3.8c-1.3-1.4-2.1-2.3-2.5-2.7l-.8-.8c-2.8-3.2-6.4-7.1-10.9-11.9-1.2-1.3-3-3.3-5.3-6-1.5-1.7-2.4-2.8-2.8-3.1a12.57,12.57,0,0,0-1.6-1.3l-.1,1.3c0,5,.1,11.9.4,20.6l.3,12.7a30.28,30.28,0,0,0,.2,3.1l1.3.3c2.4.2,4.8.6,7.2,1,.2.2.3.3.5.3v1.5a4.4,4.4,0,0,1-1,.2,3.75,3.75,0,0,1-1-.1c-2.5-.2-5.6-.3-9.2-.3-2.6,0-4.8.1-6.8.2h-.5a4.14,4.14,0,0,1-1-.1V202l1-.5,1.8-.3a14,14,0,0,0,3.5-.8,2.55,2.55,0,0,0,1.2-.8,51.29,51.29,0,0,0,.4-7.8c0-1.6,0-4.5-.1-8.7V178l-.1-10.9c-.1-4.9-.2-7.7-.5-8.6a2.34,2.34,0,0,0-1-1.2,8.14,8.14,0,0,0-3.8-1.3C235.13,155.65,234.13,155.55,233.63,155.45Z"/><path class="cls-1" d="M310.33,159l1.6-5.8a3,3,0,0,1,.4-1.5.86.86,0,0,1,.6-.3c.5,0,1,.6,1.6,1.7a4.06,4.06,0,0,0,1.1,1.5,2.14,2.14,0,0,0,1.2.4h.4l1.6.2,9.1.1h13.8l5.9-.1a3.75,3.75,0,0,1,1,.1,26.22,26.22,0,0,0,3.2.2,1,1,0,0,0,.9-.4c.1-.1.5-.9,1.3-2.5.3-.7.7-1.1,1.2-1.1a3.09,3.09,0,0,1,.8.2,7.84,7.84,0,0,1,.2,1.4v4.7c0,.8-.1,3.3-.2,7.6a2.35,2.35,0,0,1-.2.8,1.33,1.33,0,0,1-.7.3.55.55,0,0,1-.5-.3,6.88,6.88,0,0,1-.6-1.8,13.78,13.78,0,0,0-1.9-4.9,4.42,4.42,0,0,0-2.2-1.4,32.72,32.72,0,0,0-6.9-.4h-6.5c-.1,1-.1,2-.1,2.8l.3,23.9c0,.9-.1,2.7-.2,5.4v7.9a3.09,3.09,0,0,0,.5,1.9,4.44,4.44,0,0,0,2.5,1.1c2.4.6,3.9.9,4.7,1.1a10.38,10.38,0,0,1,1.2.3v1.2l-5.4-.1c-3,0-5.2-.1-6.8-.2l-5.6.3-4.1.2a8.77,8.77,0,0,1-2.1-.1l-.5-.2a3,3,0,0,1,.3-1.1,2.91,2.91,0,0,1,1.4-.4c1.1-.2,2.3-.4,3.8-.8a8.25,8.25,0,0,0,2.9-1.2c.3-.2.4-.6.5-1.2a45.62,45.62,0,0,0,.3-6.6v-6.5l-.2-14.2-.2-3.1v-10.2h-6.2c-3.7,0-5.9.2-6.7.7-1.3.7-3.1,2.7-5.6,6.1-.8,1.3-1.5,1.9-2.1,1.9l-.3-.1c-.1-.2-.2-.3-.2-.4a20.15,20.15,0,0,1,.6-2.8A29.09,29.09,0,0,0,310.33,159Z"/><path class="cls-1" d="M395.43,153.05a5.76,5.76,0,0,1,.2,1,2,2,0,0,1-.1.7,6.13,6.13,0,0,1-1.6.3,3.44,3.44,0,0,1-.9-.1c-.4,0-.8-.1-1-.1a4.65,4.65,0,0,0-2.8.7,1.67,1.67,0,0,0-.8,1.1l-.4,4.4.1,19c0,7,.3,11.3.7,13a9.39,9.39,0,0,0,2.2,4.2,11.21,11.21,0,0,0,4.6,2.7,19.1,19.1,0,0,0,6,1.1c4.3,0,7.7-.6,10-1.9a11.4,11.4,0,0,0,5-5.2c1-2.2,1.5-5.6,1.5-10.1,0-.1,0-1.2-.1-3.1v-1.1c0-.4,0-1.2.1-2.4s.1-1.9.1-2.1l-.6-11a47.8,47.8,0,0,0-.6-6.6,2.49,2.49,0,0,0-1.1-1.5,15.34,15.34,0,0,0-5.7-1.9,4.25,4.25,0,0,1-.2-1.1c1-.1,2-.2,3-.2s2.1,0,3.2.1c1.7.1,2.6.2,2.8.2l6.1-.2h1.2v1.4c-3.1.4-5,.9-5.6,1.4a4.25,4.25,0,0,0-.9,3.1c0,.8.1,2.5.2,5.2l.3,8v3.2l.1,4a80.15,80.15,0,0,1-.4,10.3,23,23,0,0,1-1.7,6,11.23,11.23,0,0,1-3.3,4,15.24,15.24,0,0,1-5.7,2.9,22.52,22.52,0,0,1-7.1,1.2,28.69,28.69,0,0,1-7.9-.8,20.8,20.8,0,0,1-7-3.5,13.72,13.72,0,0,1-3.6-4.3c-.9-1.9-1.3-4.7-1.3-8.3v-2.7l-.1-10.8.1-8.7V159a5.79,5.79,0,0,0-.6-3.1,1.43,1.43,0,0,0-1.2-.6h-2.3a6.57,6.57,0,0,1-3.2-.5,1.27,1.27,0,0,1-.1-.6.76.76,0,0,1,.2-.5,1.69,1.69,0,0,1,1-.3h9.7Z"/><path class="cls-1" d="M446.63,201.05a56.7,56.7,0,0,0,6.3-1q.45-.15.9-1.2v-.4c0-.7.1-3.1.3-7.3.1-1.2.1-2.3.1-3.5l-.1-4.8.1-5.4v-17.4c0-3.1-.2-4.9-.7-5.6s-1.7-1.1-3.7-1.4a25.09,25.09,0,0,1-3.3-.6.71.71,0,0,1-.3-.6,2,2,0,0,1,.1-.7,3.12,3.12,0,0,1,1.8-.4,6.61,6.61,0,0,0,1.1-.1,9.15,9.15,0,0,1,1.6-.1h3.1l10.1-.1c5.7,0,9.7.4,12,1.3a11.51,11.51,0,0,1,5.5,4.5,12.51,12.51,0,0,1,2,7.1c0,5-2.5,8.7-7.4,11.3-.8.5-1.5.9-2,1.2.9,1.9,2.1,4.3,3.6,7l4.9,8.8a52.55,52.55,0,0,0,4,6.1,7.94,7.94,0,0,0,2.7,2,20.37,20.37,0,0,0,5.4,1.5v1.2c-3.5.1-7.6.1-12.3.1a8.17,8.17,0,0,1-1.4-.1c-1.8-3.7-4-7.7-6.4-12.1l-5.7-10.9a8.19,8.19,0,0,0-1.9-2.1,4,4,0,0,0-2-.4h-4.4c-.1.9-.1,2.6-.1,5.3v13.8a10.4,10.4,0,0,0,.3,2.1,2.54,2.54,0,0,0,1.1,1.2,20.34,20.34,0,0,0,4.3,1.4l1.6.4a1.8,1.8,0,0,1,.3,1.1c-.7.1-1.2.2-1.5.2-2.3,0-3.9,0-4.9-.1h-1.2l-5.2.1h-5.1c-.2,0-1.4,0-3.5.1l-.8-.2-.1-.4A5.74,5.74,0,0,1,446.63,201.05Zm14.2-24.5h1.5a31.9,31.9,0,0,0,6.4-.7,9.2,9.2,0,0,0,4.1-1.9,10.17,10.17,0,0,0,2.6-3.8,13.48,13.48,0,0,0,1.1-5.2,14.2,14.2,0,0,0-1.7-6.3,9.71,9.71,0,0,0-4.3-4.2,14.74,14.74,0,0,0-7.2-1.7c-.7,0-1.6,0-2.7.1-.1,1.5-.2,2.7-.2,3.5l.2,8.2V168C460.63,170.15,460.73,173,460.83,176.55Z"/><path class="cls-1" d="M511.13,201.75c.3-.2.5-.4.7-.4a19.47,19.47,0,0,1,2.2-.3,17.15,17.15,0,0,0,4.6-.7,3.43,3.43,0,0,0,.5-2.2v-12.5l-.1-4.6v-9.6l-.2-11c0-2.6-.2-4.1-.5-4.4-.5-.5-1.8-.8-4.1-.8a19.66,19.66,0,0,1-2.6-.2c-.3-.2-.5-.4-.5-.7a2.54,2.54,0,0,1,.2-.7,1.42,1.42,0,0,1,.6-.2h1.3a36.18,36.18,0,0,0,4.7.2l2.8-.1,6.8.2c3.4,0,6,0,7.9-.1s3.2-.1,3.8-.1,2,.1,4.4.2h5.5l.7.1,3.2-.1.4.2a4.88,4.88,0,0,1,.3.7c0,.4-.1.9-.2,1.7s-.2,1.2-.2,1.4a65.24,65.24,0,0,0,.3,6.8c0,.2-.1.3-.2.3a2.2,2.2,0,0,1-.8-.1,11.63,11.63,0,0,1-1.1-2.6c-.5-1.2-1.2-2.6-2.1-4.3a4.64,4.64,0,0,0-1.5-1.9,5.39,5.39,0,0,0-2.2-.3c-.2,0-1.4,0-3.5-.1h-1.7l-10.9.2h-1c-1.4,0-2.3.2-2.5.5-.4.6-.7,2.4-.7,5.4,0,.3.1,3.4.2,9.2v5.3a2.77,2.77,0,0,0,.9.1h2.6c1.3.1,2.2.1,2.7.1h.8c2.8-.1,6.3-.2,10.7-.2a4.48,4.48,0,0,0,2.4-.8,8.11,8.11,0,0,0,.9-3.6c.2-1.9.6-3,1.3-3.3a2.92,2.92,0,0,1,.9.2,1.27,1.27,0,0,1,.1.6,3.44,3.44,0,0,1-.1.9c-.1.9-.2,3.9-.2,8.9,0,1.3.1,2.8.2,4.5s.2,2.5.2,2.6a3.44,3.44,0,0,1-.1.9,1.69,1.69,0,0,1-.5.2h-.3a14.7,14.7,0,0,1-1.2-3.3c-.7-2.6-1.4-4.2-2.1-4.9s-1.9-1-3.6-1a18.15,18.15,0,0,0-2,.1c-.9,0-2.4.1-4.2.1h-2.5c-3.6,0-5.9.1-7,.2v17.2c0,2.6.2,4.1.5,4.5.4.6,1.4.8,2.8.8h2.3c.2,0,1,0,2.4.1s3.1.1,5.2.1a52.26,52.26,0,0,0,9.9-.6,8,8,0,0,0,4-2.3c1.1-1.1,2.4-3.4,4-7,.5-1.1,1-1.6,1.5-1.6a1.6,1.6,0,0,1,.8.3c-.7,2.5-1.2,4.2-1.3,5a48.86,48.86,0,0,0-.5,5.5,3.7,3.7,0,0,1-.6,2.1h-.8l-10.8.1h-4.8l-11.5.2h-6.4q-6.9.3-10.2.3a1.55,1.55,0,0,1-.8-.2.85.85,0,0,1-.2-.6Z"/><path class="cls-1" d="M607,155c.2,1.7.3,2.7.3,2.9l-.2,3.4c-.1,1.5-.1,2.4-.2,2.8a1.42,1.42,0,0,1-.6.2l-.3-.1q-1.2-5.4-4.2-7.8a11,11,0,0,0-7.2-2.5,10.36,10.36,0,0,0-7.2,2.5,7.19,7.19,0,0,0-2.8,5.7,6.63,6.63,0,0,0,2,4.6c1.3,1.4,4.6,3.4,10,6.2a59.69,59.69,0,0,1,8.8,5.2,12.63,12.63,0,0,1,5.3,10.6,15.12,15.12,0,0,1-2.1,7.7,13.47,13.47,0,0,1-5.7,5.4,21.62,21.62,0,0,1-9.6,1.8,32.08,32.08,0,0,1-9.9-1.6,11.77,11.77,0,0,1-3.4-1.6,1.76,1.76,0,0,1-.6-1.3,4.91,4.91,0,0,1,.1-1.1c.4-3,.5-5.5.6-7.4.1-1.2.1-1.9.3-2.1a.6.6,0,0,1,.6-.3,1.42,1.42,0,0,1,.6.2,4.65,4.65,0,0,1,.3.9,12.67,12.67,0,0,0,4.4,8.4,12.49,12.49,0,0,0,8.9,3.7,11.84,11.84,0,0,0,5.6-1.3,9.51,9.51,0,0,0,4-3.7,8.77,8.77,0,0,0,1.4-4.7A8.35,8.35,0,0,0,604,186c-1.5-1.7-4.4-3.7-8.8-6a71.25,71.25,0,0,1-8.6-5,18.33,18.33,0,0,1-4.8-5.4,10.79,10.79,0,0,1-1.2-5.2,11.37,11.37,0,0,1,4.2-9c2.8-2.5,6.6-3.7,11.3-3.7a22.87,22.87,0,0,1,6.8.9A25.53,25.53,0,0,1,607,155Z"/></svg>