<?xml version="1.0" encoding="utf-8"?>
<!-- Generator: Adobe Illustrator 26.2.1, SVG Export Plug-In . SVG Version: 6.00 Build 0)  -->
<svg version="1.1" id="图层_1" xmlns="http://www.w3.org/2000/svg" xmlns:xlink="http://www.w3.org/1999/xlink" x="0px" y="0px"
	 viewBox="0 0 1080 1080" style="enable-background:new 0 0 1080 1080;" xml:space="preserve">
<style type="text/css">
	.st0{display:none;fill:#FFFFFF;}
	.st1{font-family:'ArialMT';}
	.st2{font-size:586.9731px;}
	.st3{fill:none;stroke:#000000;stroke-miterlimit:10;}
</style>
<g>
	<path d="M148.9,744.2c5.9-11.3,8.9-40,8.7-86.2v-48.7l0.9-29.3l-0.9-21.6l0.7-39.7V418.6c-0.8-11.3-2.6-18.7-6.1-22.2
		c-5.1-5.1-18.5-9.9-40.2-14.2c-9-1.8-14.5-3.5-16.5-5.1c-0.4-0.3-0.7-0.7-1.1-1.1v382c5.9-1.7,12.5-2.8,19.6-3.5
		C129.5,753,141.2,749.5,148.9,744.2z"/>
	<path d="M461.6,745.9c-15.8,8-39.2,15.1-70.3,21.1h151.6V664.2c-8.2,15.8-18.4,30-30.5,42.5C495.7,724.1,478.7,737.2,461.6,745.9z"
		/>
	<path d="M102.4,367.2h23.4l12.2-0.6c8.1,0,17.2,0.8,27,2.5c20.2,1.2,41,1.8,62.3,1.8c6.2,0,15-0.3,26.4-0.9
		c30.3-1.6,52.1-2.5,65.3-2.5c26.6,0,51.7,2.5,75.4,7.4c23.6,4.9,48,14.1,73.1,27.4c15.6,8.4,31.6,21.7,48,39.9
		c10.9,12,20,24.8,27.3,38.3V308.7H94.4v59.2C98.1,367.3,100.7,366.9,102.4,367.2z"/>
	<path class="st0" d="M552.8,501.5c-2.9-7.2-6.2-14.3-9.9-21.1c-7.4-13.5-16.5-26.2-27.3-38.3c-16.4-18.2-32.4-31.4-48-39.9
		c-25.1-13.3-49.4-22.5-73.1-27.4c-23.6-4.9-48.8-7.4-75.4-7.4c-13.2,0-35,0.8-65.3,2.5c-11.4,0.6-20.2,0.9-26.4,0.9
		c-21.3,0-42.1-0.6-62.3-1.8c-9.9-1.6-18.9-2.5-27-2.5l-12.2,0.6h-23.4c-1.6-0.2-4.3,0.1-8,0.8c-0.8,0.1-1.6,0.3-2.5,0.5
		c0.4,3.5,1.2,6,2.5,7.7c0.3,0.4,0.7,0.8,1.1,1.1c2,1.5,7.5,3.2,16.5,5.1c21.8,4.3,35.2,9,40.2,14.2c3.5,3.5,5.3,10.9,6.1,22.2
		v100.1l-0.7,39.7l0.9,21.6l-0.9,29.3v48.7c0.2,46.2-2.8,74.9-8.7,86.2c-7.7,5.3-19.4,8.8-35,10.5c-7.1,0.7-13.6,1.9-19.6,3.5
		c-3.1,0.9-6,1.8-8.8,3l-0.7,4.6c0,1.2,0.2,2.4,0.7,3.4l0.7,2.5l134.6-2.5c1.3-0.2,2.5-0.3,3.6-0.3c7,0,13.6,0.4,19.8,1.2
		c15.6,1.4,35.8,2.2,60.7,2.2c37.6,0,63.7-1.2,78.2-3.7c2.8-0.5,5.5-1,8.2-1.5c31.1-6,54.5-13.1,70.3-21.1
		c17.2-8.7,34.1-21.7,50.8-39.1c12.1-12.5,22.2-26.7,30.5-42.5c3.1-6,6-12.3,8.6-18.8c9.3-23.6,14-47.4,14-71.4
		C565.5,547.1,561.3,523,552.8,501.5z M488.8,639.5c-4.4,11.9-11.9,25.3-22.4,40.2c-10.6,14.9-24,28.2-40.4,40s-35.2,20.9-56.6,27.4
		c-21.3,6.5-43.1,9.7-65.3,9.7c-17.2,0-34.1-2.7-50.8-8c-18.7-8.6-30.1-18.7-34.1-30.3c-4.1-11.6-6.1-68.7-6.1-171.3l0.3-69.9
		c0-14.4-0.3-33.4-1-57.2c-0.2-3.7-0.3-6.9-0.3-9.5c0-4.3,0.7-9,2-14.2c1.3-1.6,2.6-3.1,4-4.3c11-4.7,27.9-7.1,50.8-7.1
		c33.2,0,64.1,4.1,92.7,12.2c28.6,8.1,53.4,20.9,74.4,38.3s35.7,35.7,44,54.8c12.1,27.5,18.1,54.6,18.1,81.2
		C498,599.4,495,622.1,488.8,639.5z"/>
</g>
<path d="M435.9,435.5c-21-17.4-45.8-30.2-74.4-38.3c-28.6-8.1-59.5-12.2-92.7-12.2c-22.9,0-39.8,2.4-50.8,7.1
	c-1.3,1.2-2.6,2.7-4,4.3c-1.3,5.1-2,9.8-2,14.2c0,2.7,0.1,5.8,0.3,9.5c0.7,23.8,1,42.9,1,57.2l-0.3,69.9c0,102.6,2,159.7,6.1,171.3
	s15.4,21.7,34.1,30.3c16.7,5.3,33.6,8,50.8,8c22.2,0,44-3.2,65.3-9.7s40.2-15.6,56.6-27.4c16.4-11.8,29.9-25.1,40.4-40
	c10.6-14.9,18-28.3,22.4-40.2c6.2-17.4,9.2-40.1,9.2-68c0-26.7-6.1-53.7-18.1-81.2C471.5,471.2,456.9,453,435.9,435.5z"/>
<text transform="matrix(-1.1104 0 0 1 995.0797 736.5391)" class="st1 st2">V</text>
<text transform="matrix(-1.1104 0 0 1 995.0797 736.5391)" class="st3 st1 st2">V</text>
</svg>
